HIERARCHY
ROOT joint_Root
{
	OFFSET 0.0 0.0 0.0
	CHANNELS 6 Xposition Yposition Zposition Zrotation Xrotation Yrotation 
	JOINT Hips
	{
		OFFSET 4.5925 91.4895 -427.239
		CHANNELS 6 Xposition Yposition Zposition Zrotation Xrotation Yrotation 
		JOINT Spine
		{
			OFFSET 15.7357 0.0 0.0
			CHANNELS 6 Xposition Yposition Zposition Zrotation Xrotation Yrotation 
			JOINT Chest
			{
				OFFSET 8.98455 -0.406207 0.0
				CHANNELS 6 Xposition Yposition Zposition Zrotation Xrotation Yrotation 
				JOINT Neck
				{
					OFFSET 16.3773 0.0 0.0
					CHANNELS 6 Xposition Yposition Zposition Zrotation Xrotation Yrotation 
					JOINT Head
					{
						OFFSET 6.45672 0.0 0.0
						CHANNELS 6 Xposition Yposition Zposition Zrotation Xrotation Yrotation 
						End Site
						{
							OFFSET 0.0 0.0 0.0
						}
					}
				}
				JOINT Shoulder_L
				{
					OFFSET 12.9942 -0.242716 4.98039
					CHANNELS 6 Xposition Yposition Zposition Zrotation Xrotation Yrotation 
					JOINT UpperArm_L
					{
						OFFSET 5.34809 0.0 0.0
						CHANNELS 6 Xposition Yposition Zposition Zrotation Xrotation Yrotation 
						JOINT LowerArm_L
						{
							OFFSET 24.3286 1.87007e-05 0.0
							CHANNELS 6 Xposition Yposition Zposition Zrotation Xrotation Yrotation 
							JOINT Hand_L
							{
								OFFSET 22.2916 0.0 0.0
								CHANNELS 6 Xposition Yposition Zposition Zrotation Xrotation Yrotation 
								End Site
								{
									OFFSET 0.0 0.0 0.0
								}
							}
						}
					}
				}
				JOINT Shoulder_R
				{
					OFFSET 12.9945 -0.242716 -4.98039
					CHANNELS 6 Xposition Yposition Zposition Zrotation Xrotation Yrotation 
					JOINT UpperArm_R
					{
						OFFSET -5.34813 0.0 0.0
						CHANNELS 6 Xposition Yposition Zposition Zrotation Xrotation Yrotation 
						JOINT LowerArm_R
						{
							OFFSET -24.3289 0.000322201 0.0
							CHANNELS 6 Xposition Yposition Zposition Zrotation Xrotation Yrotation 
							JOINT Hand_R
							{
								OFFSET -22.2915 -0.000108084 0.0
								CHANNELS 6 Xposition Yposition Zposition Zrotation Xrotation Yrotation 
								End Site
								{
									OFFSET 0.0 0.0 0.0
								}
							}
						}
					}
				}
			}
		}
		JOINT UpperLeg_L
		{
			OFFSET -2.19248 -6.46944 0.0
			CHANNELS 6 Xposition Yposition Zposition Zrotation Xrotation Yrotation 
			JOINT LowerLeg_L
			{
				OFFSET 39.0811 0.0 -1.23785e-05
				CHANNELS 6 Xposition Yposition Zposition Zrotation Xrotation Yrotation 
				JOINT Foot_L
				{
					OFFSET 40.9854 0.0 -1.26872e-05
					CHANNELS 6 Xposition Yposition Zposition Zrotation Xrotation Yrotation 
					JOINT Toes_L
					{
						OFFSET 11.7543 0.0 0.0
						CHANNELS 6 Xposition Yposition Zposition Zrotation Xrotation Yrotation 
						End Site
						{
							OFFSET 0.0 0.0 0.0
						}
					}
				}
			}
		}
		JOINT UpperLeg_R
		{
			OFFSET -2.19251 6.46944 0.0
			CHANNELS 6 Xposition Yposition Zposition Zrotation Xrotation Yrotation 
			JOINT LowerLeg_R
			{
				OFFSET -39.0811 -0.00228153 -0.0401928
				CHANNELS 6 Xposition Yposition Zposition Zrotation Xrotation Yrotation 
				JOINT Foot_R
				{
					OFFSET -40.9854 0.0 0.0
					CHANNELS 6 Xposition Yposition Zposition Zrotation Xrotation Yrotation 
					JOINT Toes_R
					{
						OFFSET -11.7543 0.0 0.0
						CHANNELS 6 Xposition Yposition Zposition Zrotation Xrotation Yrotation 
						End Site
						{
							OFFSET 0.0 0.0 0.0
						}
					}
				}
			}
		}
	}
}
MOTION
Frames:	6
Frame Time:	0.0333333
0.000000 0.000000 0.000000 0.000000 0.000000 -0.000000 -0.247392 90.389700 1.588750 89.452700 -5.011290 9.967880 15.735700 0.000005 -0.000001 87.151700 80.003000 -87.712300 8.984550 -0.406207 -0.000000 12.199900 -1.006270 -1.013500 16.377300 -0.000001 -0.000001 8.436090 -3.369650 1.843520 6.456720 -0.000001 -0.000000 -0.313224 -2.518900 1.017400 12.994200 -0.242716 4.980390 -91.526400 6.747100 -77.221500 5.348090 -0.000007 -0.000001 -57.761500 38.479100 -24.086600 24.328600 0.000019 0.000005 9.792900 23.800100 -23.156900 22.291600 -0.000001 0.000005 11.411100 5.295990 0.184519 12.994500 -0.242716 -4.980390 88.924500 11.505500 -84.623300 -5.348130 -0.000001 -0.000004 -59.717900 36.922100 -18.520200 -24.328900 0.000322 -0.000009 2.908960 7.004240 -22.628700 -22.291500 -0.000108 -0.000004 16.097500 5.432390 -4.021170 -2.192480 -6.469440 -0.000000 -175.063000 -13.840500 0.314593 39.081100 -0.000007 -0.000012 -0.209063 0.330332 32.329600 40.985400 -0.000006 -0.000013 0.761566 4.094830 -72.400400 11.754300 -0.000000 0.000003 -0.000196 -0.001823 -16.646400 -2.192510 6.469440 -0.000001 173.684000 18.663200 -178.519000 -39.081100 -0.002282 -0.040193 -0.197848 0.327902 31.526700 -40.985400 0.000008 0.000006 4.705390 14.893500 -73.037100 -11.754300 -0.000006 -0.000006 -0.002216 -0.031392 -17.849600
0.000000 0.000000 0.000000 0.000000 0.000000 -0.000000 -0.256460 90.391500 1.555960 89.436600 -4.998320 9.952830 15.735700 0.000005 -0.000001 87.189500 79.983100 -87.751800 8.984550 -0.406207 -0.000000 12.240300 -0.995340 -1.017730 16.377300 -0.000001 -0.000001 8.513460 -3.393180 1.849900 6.456720 -0.000001 -0.000000 -0.356900 -2.565920 1.023500 12.994200 -0.242716 4.980390 -91.534300 6.736400 -77.137500 5.348090 -0.000007 -0.000001 -57.922600 37.084900 -23.952900 24.328600 0.000019 0.000005 10.646500 23.864200 -24.921800 22.291600 -0.000001 0.000005 11.414400 5.293850 0.244004 12.994500 -0.242716 -4.980390 88.892300 11.427100 -84.425700 -5.348130 -0.000001 -0.000004 -59.661500 36.219800 -18.593500 -24.328900 0.000322 -0.000009 3.416330 7.636080 -24.197900 -22.291500 -0.000108 -0.000004 16.791500 5.438740 -4.240940 -2.192480 -6.469440 -0.000000 -175.035000 -13.859900 0.269110 39.081100 -0.000007 -0.000012 -0.211939 0.334646 32.347400 40.985400 -0.000006 -0.000013 0.772724 4.150050 -72.385100 11.754300 -0.000000 0.000003 -0.000196 -0.001821 -16.646300 -2.192510 6.469440 -0.000001 173.717000 18.672900 -178.554000 -39.081100 -0.002282 -0.040193 -0.197848 0.327952 31.522700 -40.985400 0.000008 0.000006 4.686620 14.897600 -73.008000 -11.754300 -0.000006 -0.000006 -0.002119 -0.030194 -17.800900
0.000000 0.000000 0.000000 0.000000 0.000000 -0.000000 -0.258249 90.393700 1.504090 89.461900 -4.970910 9.927660 15.735700 0.000005 -0.000001 87.164500 79.966800 -87.742600 8.984550 -0.406207 -0.000000 12.272400 -1.006310 -1.047780 16.377300 -0.000001 -0.000001 8.626350 -3.403220 1.847130 6.456720 -0.000001 -0.000000 -0.332745 -2.586510 1.044360 12.994200 -0.242716 4.980390 -91.530100 6.662870 -77.035600 5.348090 -0.000007 -0.000001 -57.849600 35.346600 -24.122300 24.328600 0.000019 0.000005 11.693700 23.622300 -27.317300 22.291600 -0.000001 0.000005 11.833200 5.289700 0.359078 12.994500 -0.242716 -4.980390 88.852600 11.334100 -84.181000 -5.348130 -0.000001 -0.000004 -59.375800 35.194800 -18.859600 -24.328900 0.000322 -0.000009 4.028440 8.126020 -26.489400 -22.291500 -0.000108 -0.000004 17.744000 5.445610 -4.482510 -2.192480 -6.469440 -0.000000 -175.068000 -13.880500 0.191452 39.081100 -0.000007 -0.000012 -0.211932 0.334525 32.355900 40.985400 -0.000006 -0.000013 0.781353 4.169480 -72.344700 11.754300 -0.000000 0.000003 -0.000206 -0.001897 -16.649000 -2.192510 6.469440 -0.000001 173.694000 18.710400 -178.625000 -39.081100 -0.002282 -0.040193 -0.203539 0.337101 31.532600 -40.985400 0.000008 0.000006 4.550950 14.952600 -72.934400 -11.754300 -0.000006 -0.000006 -0.001816 -0.026384 -17.645900
0.000000 0.000000 0.000000 0.000000 0.000000 -0.000000 -0.266823 90.402400 1.443360 89.444200 -4.941890 9.924510 15.735700 0.000005 -0.000001 87.164500 79.951700 -87.745100 8.984550 -0.406207 -0.000000 12.302500 -1.008010 -1.052210 16.377300 -0.000001 -0.000001 8.858760 -3.407030 1.864370 6.456720 -0.000001 -0.000000 -0.323830 -2.598520 1.021910 12.994200 -0.242716 4.980390 -91.532100 6.573180 -76.848800 5.348090 -0.000007 -0.000001 -57.254700 33.607500 -24.878600 24.328600 0.000019 0.000005 12.959700 23.284300 -30.206400 22.291600 -0.000001 0.000005 12.434800 5.289150 0.374200 12.994500 -0.242716 -4.980390 88.813500 11.205100 -83.916000 -5.348130 -0.000001 -0.000004 -58.764600 34.175800 -19.404900 -24.328900 0.000322 -0.000009 4.454500 7.970020 -29.335200 -22.291500 -0.000108 -0.000004 18.893200 5.451670 -4.698780 -2.192480 -6.469440 -0.000000 -175.045000 -13.898600 0.143710 39.081100 -0.000007 -0.000012 -0.209584 0.330819 32.355900 40.985400 -0.000006 -0.000013 0.790717 4.210510 -72.298700 11.754300 -0.000000 0.000003 -0.000208 -0.001914 -16.649700 -2.192510 6.469440 -0.000001 173.751000 18.719000 -178.668000 -39.081100 -0.002282 -0.040193 -0.198230 0.328391 31.537000 -40.985400 0.000008 0.000006 4.719100 14.881900 -72.947900 -11.754300 -0.000006 -0.000006 -0.002045 -0.029272 -17.763400
0.000000 0.000000 0.000000 0.000000 0.000000 -0.000000 -0.270378 90.414300 1.388830 89.474900 -4.891120 9.918340 15.735700 0.000005 -0.000001 87.054900 79.940300 -87.649300 8.984550 -0.406207 -0.000000 12.323000 -1.047850 -1.075540 16.377300 -0.000001 -0.000001 9.056950 -3.396730 1.840020 6.456720 -0.000001 -0.000000 -0.190947 -2.591700 0.987306 12.994200 -0.242716 4.980390 -91.533200 6.493820 -76.685100 5.348090 -0.000007 -0.000001 -56.162000 31.985400 -26.040700 24.328600 0.000019 0.000005 14.378200 22.667500 -33.631000 22.291600 -0.000001 0.000005 13.279500 5.284500 0.502784 12.994500 -0.242716 -4.980390 88.797500 11.027700 -83.737800 -5.348130 -0.000001 -0.000004 -57.811400 33.143500 -20.314600 -24.328900 0.000322 -0.000009 4.908450 7.750910 -32.493000 -22.291500 -0.000108 -0.000004 19.762900 5.457090 -4.895270 -2.192480 -6.469440 -0.000000 -175.084000 -13.893800 0.101533 39.081100 -0.000007 -0.000012 -0.206168 0.325937 32.315200 40.985400 -0.000006 -0.000013 0.804026 4.254380 -72.228400 11.754300 -0.000000 0.000003 -0.000199 -0.001845 -16.647200 -2.192510 6.469440 -0.000001 173.716000 18.803100 -178.695000 -39.081100 -0.002282 -0.040193 -0.200757 0.332824 31.512900 -40.985400 0.000008 0.000006 4.673580 14.920800 -72.886800 -11.754300 -0.000006 -0.000006 -0.002081 -0.029727 -17.781900
0.000000 0.000000 0.000000 0.000000 0.000000 -0.000000 -0.277541 90.422600 1.299190 89.461400 -4.826520 9.960370 15.735700 0.000005 -0.000001 86.966200 79.932900 -87.563300 8.984550 -0.406207 -0.000000 12.336200 -1.079600 -1.077340 16.377300 -0.000001 -0.000001 9.388490 -3.376210 1.843820 6.456720 -0.000001 -0.000000 -0.156576 -2.559700 0.924671 12.994200 -0.242716 4.980390 -91.508500 6.349860 -76.607400 5.348090 -0.000007 -0.000001 -54.948600 30.198300 -27.502500 24.328600 0.000019 0.000005 16.039900 22.256300 -37.200200 22.291600 -0.000001 0.000005 14.030000 5.281350 0.589246 12.994500 -0.242716 -4.980390 88.777000 10.892400 -83.554100 -5.348130 -0.000001 -0.000004 -56.560700 32.126500 -21.556500 -24.328900 0.000322 -0.000009 5.652050 7.905180 -35.741700 -22.291500 -0.000108 -0.000004 20.617000 5.462970 -5.109710 -2.192480 -6.469440 -0.000000 -175.077000 -13.837700 0.056805 39.081100 -0.000007 -0.000012 -0.209692 0.331289 32.332500 40.985400 -0.000006 -0.000013 0.803447 4.242160 -72.162600 11.754300 -0.000000 0.000003 -0.000210 -0.001930 -16.650200 -2.192510 6.469440 -0.000001 173.745000 18.877200 -178.714000 -39.081100 -0.002282 -0.040193 -0.193346 0.320549 31.527800 -40.985400 0.000008 0.000006 4.791560 14.899400 -72.866800 -11.754300 -0.000006 -0.000006 -0.001924 -0.027761 -17.701900
